<svg xmlns="http://www.w3.org/2000/svg" width="1136" height="62" viewBox="0 0 1136 62">
  <path id="Combined_Shape" data-name="Combined Shape" d="M1034,58a4,4,0,1,1,4,4A4,4,0,0,1,1034,58Zm-94,0a4,4,0,1,1,4,4A4,4,0,0,1,940,58Zm-94,0a4,4,0,1,1,4,4A4,4,0,0,1,846,58Zm-94,0a4,4,0,1,1,4,4A4,4,0,0,1,752,58Zm-94,0a4,4,0,1,1,4,4A4,4,0,0,1,658,58Zm-94,0a4,4,0,1,1,4,4A4,4,0,0,1,564,58Zm-94,0a4,4,0,1,1,4,4A4,4,0,0,1,470,58Zm-94,0a4,4,0,1,1,4,4A4,4,0,0,1,376,58Zm-94,0a4,4,0,1,1,4,4A4,4,0,0,1,282,58Zm-94,0a4,4,0,1,1,4,4A4,4,0,0,1,188,58ZM94,58a4,4,0,1,1,4,4A4,4,0,0,1,94,58ZM0,58a4,4,0,1,1,4,4A4,4,0,0,1,0,58ZM1128,4a4,4,0,1,1,4,4A4,4,0,0,1,1128,4Zm-94,0a4,4,0,1,1,4,4A4,4,0,0,1,1034,4ZM940,4a4,4,0,1,1,4,4A4,4,0,0,1,940,4ZM846,4a4,4,0,1,1,4,4A4,4,0,0,1,846,4ZM752,4a4,4,0,1,1,4,4A4,4,0,0,1,752,4ZM658,4a4,4,0,1,1,4,4A4,4,0,0,1,658,4ZM564,4a4,4,0,1,1,4,4A4,4,0,0,1,564,4ZM470,4a4,4,0,1,1,4,4A4,4,0,0,1,470,4ZM376,4a4,4,0,1,1,4,4A4,4,0,0,1,376,4ZM282,4a4,4,0,1,1,4,4A4,4,0,0,1,282,4ZM188,4a4,4,0,1,1,4,4A4,4,0,0,1,188,4ZM94,4a4,4,0,1,1,4,4A4,4,0,0,1,94,4Z" fill="#b3bac5"/>
</svg>
