<svg xmlns="http://www.w3.org/2000/svg" width="17.183" height="14.011" viewBox="0 0 17.183 14.011">
  <path id="logo-twitter" d="M5.548,18.706A10.014,10.014,0,0,0,15.624,8.769V8.182a8.037,8.037,0,0,0,1.76-1.829,7.14,7.14,0,0,1-2.036.552A3.674,3.674,0,0,0,16.9,4.939a7.379,7.379,0,0,1-2.243.863,3.542,3.542,0,0,0-5-.138,3.441,3.441,0,0,0-1.1,2.588,2.941,2.941,0,0,0,.1.794A9.958,9.958,0,0,1,1.339,5.318a3.556,3.556,0,0,0,1.1,4.727A3.242,3.242,0,0,1,.856,9.6v.035a3.548,3.548,0,0,0,2.829,3.485,4.344,4.344,0,0,1-.932.138,4.228,4.228,0,0,1-.656-.069,3.479,3.479,0,0,0,3.312,2.45,7.181,7.181,0,0,1-4.382,1.518A6.649,6.649,0,0,1,.2,17.119a9.634,9.634,0,0,0,5.348,1.587" transform="translate(-0.2 -4.696)" fill="#5c7589"/>
</svg>
