<svg xmlns="http://www.w3.org/2000/svg" width="16.884" height="17.249" viewBox="0 0 16.884 17.249">
  <path id="logo-google" d="M-4075.073-2765.009a8.527,8.527,0,0,1-.927-3.867,8.527,8.527,0,0,1,.927-3.867,8.614,8.614,0,0,1,7.7-4.758,8.244,8.244,0,0,1,5.763,2.25l-2.457,2.458a4.683,4.683,0,0,0-3.306-1.294,5.151,5.151,0,0,0-4.837,3.565,5.184,5.184,0,0,0-.273,1.646,4.993,4.993,0,0,0,.273,1.646,5.151,5.151,0,0,0,4.837,3.565,5.2,5.2,0,0,0,2.925-.834,4,4,0,0,0,1.726-2.573h-4.65v-3.242h8.121a10.031,10.031,0,0,1,.137,1.632,8.431,8.431,0,0,1-2.56,6.339,8.212,8.212,0,0,1-5.7,2.091A8.614,8.614,0,0,1-4075.073-2765.009Z" transform="translate(4076 2777.5)" fill="#5c7589"/>
</svg>
