<svg xmlns="http://www.w3.org/2000/svg" width="113.458" height="35.408" viewBox="0 0 113.458 35.408">
  <path id="logo-airbnb" d="M59.788,8.9a2.3,2.3,0,1,1-2.3-2.3A2.3,2.3,0,0,1,59.788,8.9Zm-9.5,4.643v.567a4.428,4.428,0,0,0-3.438-1.418,6.785,6.785,0,0,0-6.876,7.018,6.785,6.785,0,0,0,6.876,7.018,4.3,4.3,0,0,0,3.438-1.453v.6a.485.485,0,0,0,.5.5h2.871V13.043H50.785A.507.507,0,0,0,50.289,13.54Zm0,8.542a3.523,3.523,0,0,1-2.871,1.453,3.712,3.712,0,0,1-4.005-3.828,3.712,3.712,0,0,1,4.005-3.828,3.62,3.62,0,0,1,2.871,1.453Zm5.494-9.038h3.4V26.37h-3.4Zm50.826-.354a4.428,4.428,0,0,0-3.438,1.418V6.628h-3.4V26.37h2.871a.507.507,0,0,0,.5-.5v-.6h0a4.389,4.389,0,0,0,3.438,1.453,6.806,6.806,0,0,0,6.876-7.018A6.8,6.8,0,0,0,106.609,12.689Zm-.567,10.81a3.471,3.471,0,0,1-2.871-1.453V17.3a3.846,3.846,0,0,1,2.871-1.453,3.712,3.712,0,0,1,4.005,3.828A3.712,3.712,0,0,1,106.042,23.5ZM98,18.466v7.939h-3.4v-7.55c0-2.2-.709-3.084-2.623-3.084a3.8,3.8,0,0,0-2.765,1.311V26.37H85.8V13.043H88.5a.507.507,0,0,1,.5.5v.567a4.883,4.883,0,0,1,3.615-1.418,5.517,5.517,0,0,1,3.722,1.276C97.535,14.957,98,16.233,98,18.466ZM77.545,12.689a4.428,4.428,0,0,0-3.438,1.418V6.628H70.7V26.37h2.871a.507.507,0,0,0,.5-.5v-.6h0a4.389,4.389,0,0,0,3.438,1.453,6.806,6.806,0,0,0,6.876-7.018A6.756,6.756,0,0,0,77.545,12.689ZM76.978,23.5a3.471,3.471,0,0,1-2.871-1.453V17.3a3.846,3.846,0,0,1,2.871-1.453,3.712,3.712,0,0,1,4.005,3.828A3.712,3.712,0,0,1,76.978,23.5Zm-9.215-10.81a5.426,5.426,0,0,1,1.56.177v3.155s-2.835-.957-4.608,1.063v9.322h-3.4V13.043h2.871a.507.507,0,0,1,.5.5v.567A4.655,4.655,0,0,1,67.763,12.689ZM32.426,25.165c-.177-.425-.354-.886-.532-1.276-.284-.638-.567-1.241-.815-1.808l-.035-.035c-2.446-5.317-5.068-10.7-7.833-16.021L23.1,5.813c-.284-.532-.567-1.1-.851-1.666A10.188,10.188,0,0,0,20.977,2.2a5.724,5.724,0,0,0-4.5-2.2,5.949,5.949,0,0,0-4.537,2.127,12.219,12.219,0,0,0-1.276,1.949c-.284.567-.567,1.134-.851,1.666l-.106.213c-2.729,5.317-5.387,10.7-7.833,16.021l-.035.071c-.248.567-.532,1.17-.815,1.808q-.266.585-.532,1.276a7.962,7.962,0,0,0-.425,3.828,7.533,7.533,0,0,0,4.608,5.884,7.279,7.279,0,0,0,2.871.567,8.064,8.064,0,0,0,.922-.071,9.365,9.365,0,0,0,3.544-1.205,17.949,17.949,0,0,0,4.4-3.686,18.624,18.624,0,0,0,4.4,3.686,9.365,9.365,0,0,0,3.544,1.205,8.064,8.064,0,0,0,.922.071,7.157,7.157,0,0,0,2.871-.567,7.518,7.518,0,0,0,4.608-5.884A6.7,6.7,0,0,0,32.426,25.165ZM16.44,27.008a17.485,17.485,0,0,1-3.58-6.593,5.717,5.717,0,0,1-.106-2.162,3.439,3.439,0,0,1,.567-1.489,3.763,3.763,0,0,1,3.119-1.56,3.629,3.629,0,0,1,3.119,1.56,3.439,3.439,0,0,1,.567,1.489,5.69,5.69,0,0,1-.106,2.162A18.016,18.016,0,0,1,16.44,27.008Zm14.142,1.666a5.267,5.267,0,0,1-3.225,4.147,5.367,5.367,0,0,1-2.694.354,6.97,6.97,0,0,1-2.694-.922,16.55,16.55,0,0,1-4.041-3.438,19.989,19.989,0,0,0,4.289-7.833,8.884,8.884,0,0,0,.177-3.013,5.751,5.751,0,0,0-.957-2.41,5.972,5.972,0,0,0-5-2.517,6.063,6.063,0,0,0-5,2.517,5.751,5.751,0,0,0-.957,2.41,7.359,7.359,0,0,0,.177,3.013,20.567,20.567,0,0,0,4.289,7.869,15.924,15.924,0,0,1-4.041,3.438,6.97,6.97,0,0,1-2.694.922,5.669,5.669,0,0,1-2.694-.354A5.267,5.267,0,0,1,2.3,28.71a5.868,5.868,0,0,1,.319-2.765c.106-.354.284-.709.461-1.134.248-.567.532-1.17.815-1.772l.035-.071C6.374,17.686,9,12.3,11.726,7.053l.106-.213c.284-.532.567-1.1.851-1.63a7.785,7.785,0,0,1,.992-1.56,3.721,3.721,0,0,1,5.671,0,7.785,7.785,0,0,1,.992,1.56c.284.532.567,1.1.851,1.63l.106.213C23.99,12.334,26.613,17.722,29.058,23v.035c.284.567.532,1.205.815,1.772.177.425.354.78.461,1.134A5.989,5.989,0,0,1,30.582,28.674Z" transform="translate(0.008)" fill="#a8b2b9"/>
</svg>
