<svg xmlns="http://www.w3.org/2000/svg" width="94.903" height="31.24" viewBox="0 0 94.903 31.24">
  <g id="logo-google" transform="translate(0)">
    <g id="g56" transform="translate(0 0)">
      <path id="path44" d="M87.647,33.369a7.831,7.831,0,1,1-7.831-7.807A7.71,7.71,0,0,1,87.647,33.369Zm-3.428,0a4.414,4.414,0,1,0-8.806,0,4.414,4.414,0,1,0,8.806,0Z" transform="translate(-47.034 -16.929)" fill="#a8b2b9"/>
      <path id="path46" d="M135.711,33.369a7.831,7.831,0,1,1-7.831-7.807A7.71,7.71,0,0,1,135.711,33.369Zm-3.428,0a4.414,4.414,0,1,0-8.806,0,4.414,4.414,0,1,0,8.806,0Z" transform="translate(-78.204 -16.929)" fill="#a8b2b9"/>
      <path id="path48" d="M183.058,26.034V40.05c0,5.765-3.4,8.12-7.419,8.12a7.434,7.434,0,0,1-6.92-4.6l2.985-1.242a4.312,4.312,0,0,0,3.931,2.77c2.573,0,4.167-1.587,4.167-4.576V39.4h-.12a5.315,5.315,0,0,1-4.111,1.774,7.812,7.812,0,0,1,0-15.61,5.41,5.41,0,0,1,4.111,1.746h.12V26.038h3.256ZM180.045,33.4c0-2.749-1.834-4.759-4.167-4.759a4.514,4.514,0,0,0-4.347,4.759,4.48,4.48,0,0,0,4.347,4.7C178.212,38.1,180.045,36.118,180.045,33.4Z" transform="translate(-109.361 -16.929)" fill="#a8b2b9"/>
      <path id="path50" d="M219.771,3.533V26.411h-3.344V3.533Z" transform="translate(-140.706 -2.643)" fill="#a8b2b9"/>
      <path id="path52" d="M241.625,35.932l2.661,1.774a7.77,7.77,0,0,1-6.5,3.46,7.638,7.638,0,0,1-7.747-7.807c0-4.642,3.34-7.807,7.363-7.807,4.051,0,6.033,3.224,6.68,4.966l.356.887L234,35.728a3.973,3.973,0,0,0,3.784,2.365A4.455,4.455,0,0,0,241.625,35.932Zm-8.19-2.809,6.976-2.9a3.022,3.022,0,0,0-2.9-1.654A4.282,4.282,0,0,0,233.435,33.124Z" transform="translate(-149.531 -16.923)" fill="#a8b2b9"/>
      <path id="path54" d="M13.294,15.409V12.1H24.455a10.975,10.975,0,0,1,.165,2,10.938,10.938,0,0,1-2.869,7.747,11.084,11.084,0,0,1-8.454,3.4A12.292,12.292,0,0,1,1,13.122,12.292,12.292,0,0,1,13.3,1,11.55,11.55,0,0,1,21.6,4.34L19.267,6.677a8.442,8.442,0,0,0-5.973-2.365A8.7,8.7,0,0,0,4.6,13.122a8.7,8.7,0,0,0,8.693,8.81,8.109,8.109,0,0,0,6.121-2.425,6.865,6.865,0,0,0,1.8-4.1Z" transform="translate(-1 -1)" fill="#a8b2b9"/>
    </g>
  </g>
</svg>
