<svg id="Logo" xmlns="http://www.w3.org/2000/svg" xmlns:xlink="http://www.w3.org/1999/xlink" width="90" height="28" viewBox="0 0 90 28">
  <defs>
    <linearGradient id="linear-gradient" x1="0.5" x2="0.5" y2="1" gradientUnits="objectBoundingBox">
      <stop offset="0" stop-color="#254a72"/>
      <stop offset="1" stop-color="#10243e"/>
    </linearGradient>
  </defs>
  <g id="Logo-2" data-name="Logo">
    <path id="Combined_Shape" data-name="Combined Shape" d="M48.767,28a19.935,19.935,0,0,1-2.937-.184,2.715,2.715,0,0,1-1.315-.461.884.884,0,0,1-.265-.634V25a.96.96,0,0,1,.265-.7.913.913,0,0,1,.685-.274h.575l2.038.266q1.858,0,2.767-2.318a6.321,6.321,0,0,1-4.1-2.341c-1.9-2.384-2.021-3.156-2.872-5.885L41.286,6.206a.81.81,0,0,1-.047-.289.686.686,0,0,1,.194-.4.756.756,0,0,1,.583-.249l3.059.013a1.43,1.43,0,0,1,.864.305,1.381,1.381,0,0,1,.536.758l2.038,6.625a10.41,10.41,0,0,0,1.548,3.375,2.361,2.361,0,0,0,1.859.937l3.1-10.937a1.467,1.467,0,0,1,.49-.758,1.245,1.245,0,0,1,.817-.305h3.283a.671.671,0,0,1,.575.25.755.755,0,0,1,.187.414,1.02,1.02,0,0,1-.032.274L56.264,20.813a13.061,13.061,0,0,1-2.7,5.531A5.528,5.528,0,0,1,49.417,28Zm18.66-5.269a9.134,9.134,0,0,1-5.282-1.445,4.69,4.69,0,0,1-2.054-4.063,4.605,4.605,0,0,1,2.062-4.031,9.281,9.281,0,0,1,5.314-1.407h5.15a3.437,3.437,0,0,0-.762-2.546,3.894,3.894,0,0,0-2.669-.719,3.449,3.449,0,0,0-2.569.823l-.108.122a1.7,1.7,0,0,1-1.358.41A12.675,12.675,0,0,1,62.937,9.6,1.873,1.873,0,0,1,61.6,8.875a.82.82,0,0,1-.072-.673,4.094,4.094,0,0,1,2.614-2.425,16.12,16.12,0,0,1,5.672-.808,9.774,9.774,0,0,1,5.944,1.664A6.018,6.018,0,0,1,78,11.781v9.672a.909.909,0,0,1-.95.953h-3a.913.913,0,0,1-.685-.274.941.941,0,0,1-.265-.68v-.484a9.47,9.47,0,0,1-5.643,1.758ZM66.12,15.86a1.717,1.717,0,0,0-.63,1.374,1.741,1.741,0,0,0,.653,1.391A2.818,2.818,0,0,0,68,19.172a8.579,8.579,0,0,0,4.621-1.406V15.328H67.84A2.6,2.6,0,0,0,66.12,15.86ZM9.086,22.719A9.355,9.355,0,0,1,2.4,20.437,8.681,8.681,0,0,1,0,13.867,8.727,8.727,0,0,1,2.412,7.274,9.326,9.326,0,0,1,9.1,4.969a9.428,9.428,0,0,1,6.674,2.242,8.412,8.412,0,0,1,2.4,6.43v.891a.949.949,0,0,1-.273.7.939.939,0,0,1-.692.273H5.493a4.154,4.154,0,0,0,1.1,2.8,4.348,4.348,0,0,0,3.01.875,3.518,3.518,0,0,0,2.831-.937,1.579,1.579,0,0,1,1.336-.48,12.715,12.715,0,0,1,1.648.16,2.286,2.286,0,0,1,1.638.8.665.665,0,0,1,.155.459c-.475,2.452-2.959,3.547-8.053,3.547ZM6.463,9.437a4.126,4.126,0,0,0-1,2.766H12.7a4.083,4.083,0,0,0-.978-2.766,3.52,3.52,0,0,0-2.623-.922A3.548,3.548,0,0,0,6.463,9.437ZM34.511,22.406a.914.914,0,0,1-.677-.274.924.924,0,0,1-.273-.68V12.485c0-2.49-.991-3.251-2.972-3.251-1.3,0-2.687,1.332-4.17,2.822v9.4a.933.933,0,0,1-.949.953H21.985a.917.917,0,0,1-.677-.274.927.927,0,0,1-.272-.68V.968a.945.945,0,0,1,.272-.695A.917.917,0,0,1,21.985,0h3.486a.915.915,0,0,1,.677.274.942.942,0,0,1,.273.695V7.234a8.689,8.689,0,0,1,5.7-2.265A6.756,6.756,0,0,1,37.048,6.82q1.9,1.852,1.9,5.665v8.969a.934.934,0,0,1-.965.953Z" fill="url(#linear-gradient)"/>
    <circle id="Oval" cx="4" cy="4" r="4" transform="translate(82 6)" fill="#1576d8"/>
  </g>
</svg>
