<svg xmlns="http://www.w3.org/2000/svg" width="32.338" height="31.54" viewBox="0 0 32.338 31.54">
  <path id="logo-github" d="M16.169,0a16.17,16.17,0,0,0-5.113,31.509c.808.141,1.112-.344,1.112-.768,0-.384-.02-1.657-.02-3.011-4.062.748-5.113-.99-5.437-1.9a5.879,5.879,0,0,0-1.657-2.284c-.566-.3-1.374-1.051-.02-1.071a3.236,3.236,0,0,1,2.486,1.657,3.456,3.456,0,0,0,4.709,1.334A3.4,3.4,0,0,1,13.258,23.3C9.661,22.9,5.9,21.5,5.9,15.32a6.293,6.293,0,0,1,1.657-4.345A5.81,5.81,0,0,1,7.721,6.69s1.354-.424,4.446,1.657a15.244,15.244,0,0,1,8.084,0C23.344,6.245,24.7,6.69,24.7,6.69a5.81,5.81,0,0,1,.162,4.285,6.256,6.256,0,0,1,1.657,4.345c0,6.2-3.779,7.579-7.377,7.983a3.829,3.829,0,0,1,1.091,2.991c0,2.163-.02,3.9-.02,4.446,0,.424.3.93,1.112.768A16.177,16.177,0,0,0,16.169,0Z" fill="#1b1f23" fill-rule="evenodd"/>
</svg>
