<svg xmlns="http://www.w3.org/2000/svg" width="35.691" height="42" viewBox="0 0 35.691 42">
  <g id="linux" transform="translate(-8.24 279.8)">
    <path id="Path_2" data-name="Path 2" d="M25.45-269.537a.136.136,0,0,1-.139.139h-.139c-.139,0-.139-.139-.278-.278a.485.485,0,0,1-.139-.278c0-.139,0-.139.139-.139l.278.139c.139.139.278.278.278.417m-2.5-1.391c0-.7-.278-1.112-.7-1.112a.136.136,0,0,1-.139.139v.278h.417c0,.278.139.417.139.7h.278m4.867-.7c.278,0,.417.278.556.7h.278a.511.511,0,0,1-.139-.417.511.511,0,0,0-.139-.417c-.139-.139-.278-.278-.417-.278a.486.486,0,0,1-.278.139c0,.139.139.139.139.278M23.642-269.4c-.139,0-.139,0-.139-.139a.511.511,0,0,1,.139-.417.609.609,0,0,0,.417-.139.136.136,0,0,1,.139.139c0,.139-.139.278-.417.556h-.139m-1.53-.139c-.556-.278-.7-.7-.7-1.391a1.173,1.173,0,0,1,.278-.973.765.765,0,0,1,.7-.417c.278,0,.417.139.7.417a4.06,4.06,0,0,1,.278,1.252v.278H23.5v-.139c.139,0,.139-.278.139-.834a2.067,2.067,0,0,0-.278-1.252,1.239,1.239,0,0,0-1.112-.7,1.046,1.046,0,0,0-.973.7,3.27,3.27,0,0,0-.334,1.669,2.278,2.278,0,0,0,.751,1.669c.139-.139.278-.139.417-.278M39.495-249.93c.139,0,.139-.056.139-.181a1.512,1.512,0,0,0-.556-1.071,3.4,3.4,0,0,0-1.947-.793c-.139-.014-.278-.014-.278-.014a.945.945,0,0,0-.278-.028c-.139-.014-.417-.042-.556-.07a11.057,11.057,0,0,0,.556-3.435,5.452,5.452,0,0,0-.834-3.2,2.819,2.819,0,0,0-1.808-1.391c-.139.139-.139.139-.139.278a3.481,3.481,0,0,1,1.808,1.669,6.629,6.629,0,0,1,.556,2.781,9.718,9.718,0,0,1-.7,3.407,3.148,3.148,0,0,0-1.53,1.544c0,.125,0,.195.139.195a1.646,1.646,0,0,0,.278-.362c.278-.236.417-.473.7-.709a2.066,2.066,0,0,1,1.112-.362,4.723,4.723,0,0,1,1.808.292,1.683,1.683,0,0,1,.973.6q.209.313.417.584a.317.317,0,0,0,.139.264M26.7-270.094a1.042,1.042,0,0,1-.139-.7,1.869,1.869,0,0,1,.278-1.252,1.2,1.2,0,0,1,.834-.417,1.408,1.408,0,0,1,.973.556,3.273,3.273,0,0,1,.278,1.112,1.118,1.118,0,0,1-.834,1.252.485.485,0,0,0,.278.139c.278,0,.417.139.7.278a12.34,12.34,0,0,0,.278-2.086,3.155,3.155,0,0,0-.417-1.808,1.785,1.785,0,0,0-1.391-.556,2.243,2.243,0,0,0-1.252.417,1.849,1.849,0,0,0-.417,1.112,3.849,3.849,0,0,0,.417,1.808c.139,0,.278.139.417.139m1.669,2.225a8.136,8.136,0,0,1-4.311,1.808,4.416,4.416,0,0,1-2.781-1.112,3.039,3.039,0,0,0,.417.7l.834.834a2.745,2.745,0,0,0,1.947.834,6.638,6.638,0,0,0,3.476-1.53l1.252-.834a1.408,1.408,0,0,0,.556-.973c0-.139,0-.278-.139-.278-.139-.278-.834-.7-2.225-1.112a8.124,8.124,0,0,0-2.781-.834,5.178,5.178,0,0,0-2.086.834c-.834.556-1.391,1.112-1.391,1.669a1.721,1.721,0,0,1,.278.417,4.033,4.033,0,0,0,2.5,1.112c1.112,0,2.5-.556,4.311-1.947v.278a.136.136,0,0,1,.139.139m3.2,28.09a2.884,2.884,0,0,0,2.642,1.571,2.892,2.892,0,0,0,.834-.125,1.816,1.816,0,0,0,.7-.264c.139-.1.278-.195.417-.306a1.66,1.66,0,0,0,.417-.236l2.364-2.044a9.361,9.361,0,0,1,1.808-1.168,11.976,11.976,0,0,1,1.391-.681,2.482,2.482,0,0,0,.973-.5,1.435,1.435,0,0,0,.278-.807,1.246,1.246,0,0,0-.556-.932,2.829,2.829,0,0,0-.834-.473,3.211,3.211,0,0,1-.973-.7,3.751,3.751,0,0,1-.7-1.516l-.139-.807c-.139-.375-.139-.654-.278-.807,0-.042,0-.056-.139-.056a.763.763,0,0,0-.556.362c-.278.236-.556.5-.834.779-.139.278-.556.528-.834.765a2.5,2.5,0,0,1-1.112.362,2.211,2.211,0,0,1-2.086-.9,5.068,5.068,0,0,1-.556-1.544c-.278-.236-.417-.362-.7-.362-.7,0-.973.723-.973,2.183v4.325a4.414,4.414,0,0,0-.139.834,4.887,4.887,0,0,0-.139,1.474l-.278,1.544v.024M11.4-240.519a22.815,22.815,0,0,1,4.464,1.211,14.867,14.867,0,0,0,3.087.932A3.035,3.035,0,0,0,21.4-239.64a2.058,2.058,0,0,0,.139-.951q0-1.971-2.378-4.992l-.946-1.265a13.145,13.145,0,0,1-.737-1.21,11.894,11.894,0,0,0-.765-1.252,3.755,3.755,0,0,0-.848-.96,2.856,2.856,0,0,0-1.238-.64,1.882,1.882,0,0,0-1.182.57,1.7,1.7,0,0,0-.334.862.823.823,0,0,1-.264.584,2.536,2.536,0,0,1-.7.223c-.07,0-.195,0-.375.014H11.4a3.576,3.576,0,0,0-1.5.223,2.041,2.041,0,0,0-.528,1.349,6.348,6.348,0,0,0,.167,1.126,6.229,6.229,0,0,1,.167,1.224,3.251,3.251,0,0,1-.515,1.71,3.11,3.11,0,0,0-.528,1.36c.139.54,1.057.919,2.739,1.142m4.631-12.64a8.656,8.656,0,0,1,.765-3.268,9.165,9.165,0,0,1,1.488-2.642c-.028-.139-.1-.139-.209-.139l-.139-.139a10.649,10.649,0,0,0-1.474,2.781,8.269,8.269,0,0,0-.89,3.254,3.171,3.171,0,0,0,.431,1.641,9.839,9.839,0,0,0,2.211,1.975l1.474.96c1.571,1.363,2.406,2.308,2.406,2.865a1.137,1.137,0,0,1-.556.9,1.316,1.316,0,0,1-.973.5c-.028,0-.042.028-.042.1,0,.014.139.292.431.834.584.793,1.836,1.182,3.5,1.182a8.433,8.433,0,0,0,7.231-3.755,2.791,2.791,0,0,0-.139-1.307v-.515a3.917,3.917,0,0,1,.417-2.03,1.1,1.1,0,0,1,.973-.654,1.376,1.376,0,0,1,.834.306,21.057,21.057,0,0,0,.139-2.837,11.994,11.994,0,0,0-.278-3.282,7.33,7.33,0,0,0-.7-2.086l-.834-1.252c-.278-.417-.417-.834-.7-1.252a5.976,5.976,0,0,1-.278-1.669c-.417-.7-.7-1.391-1.112-2.086-.278-.7-.556-1.391-.834-1.947l-1.252.973a6.247,6.247,0,0,1-3.476,1.391,2.259,2.259,0,0,1-1.947-.7l-.834-.7a3.626,3.626,0,0,1-.417,1.53l-.876,1.669a8.482,8.482,0,0,0-.64,1.947,2.777,2.777,0,0,1-.125.556l-1.043,2.086a12.3,12.3,0,0,0-1.7,5.618,6.041,6.041,0,0,0,.083.987,2.061,2.061,0,0,1-.932-1.808m9.957,13.155a9.571,9.571,0,0,0-4.172.73v-.042a3.123,3.123,0,0,1-2.559,1.265,10.639,10.639,0,0,1-3.2-.793,37.765,37.765,0,0,0-3.88-1.138c-.111-.032-.362-.079-.765-.143s-.751-.126-1.071-.19a8.077,8.077,0,0,1-.987-.285,2.443,2.443,0,0,1-.834-.427.786.786,0,0,1-.286-.594,2.043,2.043,0,0,1,.142-.713c.089-.153.186-.306.284-.445a2.693,2.693,0,0,0,.236-.431A2.037,2.037,0,0,0,9.1-243.6a1.72,1.72,0,0,0,.139-.4,2.146,2.146,0,0,0,.056-.417c0-.139-.056-.556-.167-1.293a12.534,12.534,0,0,1-.167-1.377,2.119,2.119,0,0,1,.445-1.446,1.256,1.256,0,0,1,.9-.528h1.6a1.431,1.431,0,0,0,.612-.236c.1-.223.181-.4.236-.57s.1-.292.125-.348c.028-.083.056-.167.083-.236a1.92,1.92,0,0,1,.222-.32.842.842,0,0,1-.167-.542,1.418,1.418,0,0,1,.028-.375,5.017,5.017,0,0,1,.737-2.142l.487-.876a19.24,19.24,0,0,0,.932-1.863,18.189,18.189,0,0,0,.765-2.5A6.916,6.916,0,0,1,17.551-262l1.043-1.252a9.816,9.816,0,0,0,1.46-2.086,4.48,4.48,0,0,0,.4-1.808c0-.278-.07-1.112-.222-2.5s-.209-2.781-.209-4.033a8.94,8.94,0,0,1,.264-2.364,4.944,4.944,0,0,1,.973-1.947,3.731,3.731,0,0,1,1.808-1.391,9.244,9.244,0,0,1,2.92-.417,3.85,3.85,0,0,1,1.252.139,4.807,4.807,0,0,1,1.669.417,5.742,5.742,0,0,1,1.53.973,6.237,6.237,0,0,1,1.391,1.808,13.524,13.524,0,0,1,.7,2.781c.139.7.139,1.391.278,2.364,0,.834.139,1.391.139,1.808.139.417.139.973.278,1.669a4.982,4.982,0,0,0,.556,1.53,10.375,10.375,0,0,0,.973,1.669c.417.7.973,1.391,1.53,2.225a13.945,13.945,0,0,1,2.781,4.45,11.683,11.683,0,0,1,1.112,5.131,9.451,9.451,0,0,1-.417,2.8.609.609,0,0,1,.556.306,3.9,3.9,0,0,1,.417,1.265l.139,1.029a1.636,1.636,0,0,0,.7.848,3.091,3.091,0,0,0,.973.626,4.514,4.514,0,0,1,.973.584,1.236,1.236,0,0,1,.417.876,1.353,1.353,0,0,1-.417,1.071,2.179,2.179,0,0,1-.973.6c-.278.139-.834.417-1.669.809a15.138,15.138,0,0,0-2.086,1.5L37.4-239.344a7.706,7.706,0,0,1-1.53,1.168,3.042,3.042,0,0,1-1.53.375l-.973-.111a3.173,3.173,0,0,1-2.225-1.7,47.5,47.5,0,0,0-5.145-.4" transform="translate(0 0)" fill="#3e586c"/>
  </g>
</svg>
