<svg xmlns="http://www.w3.org/2000/svg" width="15.175" height="15.271" viewBox="0 0 15.175 15.271">
  <path id="Subtraction_4" data-name="Subtraction 4" d="M14.053,15.27H1.121A1.108,1.108,0,0,1,0,14.177V1.094A1.108,1.108,0,0,1,1.121,0H14.054a1.108,1.108,0,0,1,1.121,1.094V14.177A1.108,1.108,0,0,1,14.053,15.27ZM2.309,5.888v6.9H4.6v-6.9Zm5.852,0H5.869c.03.633,0,6.836,0,6.9H8.16V8.933a1.525,1.525,0,0,1,.076-.559A1.431,1.431,0,0,1,8.649,7.8a1.177,1.177,0,0,1,.763-.265,1.01,1.01,0,0,1,.891.432,2,2,0,0,1,.27,1.127v3.689h2.292V8.829c0-1.94-.987-3.1-2.638-3.1A2.29,2.29,0,0,0,8.16,6.863ZM3.471,2.562a1.194,1.194,0,1,0-.03,2.382h.015a1.2,1.2,0,1,0,.016-2.382Z" fill="#5c7589"/>
</svg>
