<svg xmlns="http://www.w3.org/2000/svg" width="32.381" height="33.755" viewBox="0 0 32.381 33.755">
  <path id="logo-notion" d="M17.584,7.918c1.05.853,1.444.788,3.415.656L39.585,7.458c.394,0,.066-.393-.065-.459L36.434,4.768a3.709,3.709,0,0,0-2.89-.854l-18,1.313c-.656.065-.787.393-.526.656ZM18.7,12.249V31.806c0,1.051.525,1.444,1.707,1.379L40.833,32c1.183-.065,1.314-.788,1.314-1.642V10.936c0-.852-.328-1.312-1.052-1.246L19.75,10.936c-.788.066-1.051.46-1.051,1.313ZM38.865,13.3c.131.591,0,1.182-.592,1.248l-.984.2V29.18a5.128,5.128,0,0,1-2.3.722c-1.051,0-1.315-.328-2.1-1.312L26.449,18.484v9.778l2.037.46s0,1.181-1.644,1.181l-4.531.263a.845.845,0,0,1,.46-1.05l1.182-.328V15.859l-1.642-.132a1.228,1.228,0,0,1,1.116-1.51l4.861-.328,6.7,10.238V15.071l-1.708-.2a1.111,1.111,0,0,1,1.05-1.313ZM14.036,3.455l18.72-1.379c2.3-.2,2.89-.065,4.335.984l5.976,4.2c.986.722,1.315.919,1.315,1.706V32c0,1.444-.526,2.3-2.365,2.428l-21.74,1.313a2.725,2.725,0,0,1-2.76-1.05l-4.4-5.709A4.41,4.41,0,0,1,12,26.227V5.751a2.058,2.058,0,0,1,2.036-2.3Z" transform="translate(-12 -2)" fill-rule="evenodd"/>
</svg>
