<svg xmlns="http://www.w3.org/2000/svg" width="26.655" height="30.864" viewBox="0 0 26.655 30.864">
  <g id="logo-analytics" transform="translate(-174.949 -339.181)">
    <path id="path3806" d="M269.9,342.863v23.148a3.732,3.732,0,0,0,3.683,4.033,3.686,3.686,0,0,0,3.683-4.033V343.039a3.688,3.688,0,0,0-3.683-3.858A3.745,3.745,0,0,0,269.9,342.863Zm0,0" transform="translate(-75.657)" fill="#f8ab00"/>
    <path id="path3808" d="M222.423,400.695v11.4a3.732,3.732,0,0,0,3.683,4.033,3.686,3.686,0,0,0,3.683-4.033V400.87a3.688,3.688,0,0,0-3.683-3.858A3.745,3.745,0,0,0,222.423,400.695Zm0,0" transform="translate(-37.829 -46.082)" fill="#e37300"/>
    <path id="path3810" d="M182.315,458.526a3.683,3.683,0,1,1-3.683-3.683,3.684,3.684,0,0,1,3.683,3.683" transform="translate(0 -92.164)" fill="#e37300"/>
  </g>
</svg>
