<svg xmlns="http://www.w3.org/2000/svg" width="78.367" height="27.205" viewBox="0 0 78.367 27.205">
  <g id="logo-uber" transform="translate(0 0)">
    <path id="Path_28" data-name="Path 28" d="M4.509,19.43a6.7,6.7,0,0,0,1.376,2.254,5.919,5.919,0,0,0,2.082,1.433,6.794,6.794,0,0,0,2.617.5,6.477,6.477,0,0,0,2.579-.516,6.345,6.345,0,0,0,2.1-1.452,6.583,6.583,0,0,0,1.395-2.235,8.076,8.076,0,0,0,.5-2.9V0h4.012V26.747H17.194V24.263a9.211,9.211,0,0,1-3.152,2.178,9.99,9.99,0,0,1-3.916.764,10.6,10.6,0,0,1-3.993-.745,9.349,9.349,0,0,1-3.21-2.121,10,10,0,0,1-2.14-3.305A11.331,11.331,0,0,1,0,16.736V0H4.012V16.507A8.232,8.232,0,0,0,4.509,19.43Z" transform="translate(0 0)" fill="#a8b2b9"/>
    <path id="Path_29" data-name="Path 29" d="M290.382,0V9.743a10.221,10.221,0,0,1,3.1-2.121A9.279,9.279,0,0,1,297.3,6.84a10.076,10.076,0,0,1,4.012.8,10.108,10.108,0,0,1,5.426,5.426,9.982,9.982,0,0,1,.8,3.974,9.845,9.845,0,0,1-.8,3.955A10.158,10.158,0,0,1,301.31,26.4a10.076,10.076,0,0,1-4.012.8,9.411,9.411,0,0,1-3.84-.783,10.15,10.15,0,0,1-3.114-2.121v2.445h-3.821V0Zm.439,19.678a6.648,6.648,0,0,0,1.433,2.14,6.915,6.915,0,0,0,2.14,1.452,6.505,6.505,0,0,0,2.636.535,6.411,6.411,0,0,0,2.6-.535,6.684,6.684,0,0,0,2.121-1.452,7.086,7.086,0,0,0,1.433-2.14,6.5,6.5,0,0,0,.535-2.636,6.641,6.641,0,0,0-.535-2.656,7.022,7.022,0,0,0-1.433-2.159,6.432,6.432,0,0,0-2.121-1.433,6.717,6.717,0,0,0-7.336,1.433,6.853,6.853,0,0,0-1.452,2.159,6.64,6.64,0,0,0-.535,2.656A6.711,6.711,0,0,0,290.822,19.678Z" transform="translate(-262.298 0)" fill="#a8b2b9"/>
    <path id="Path_30" data-name="Path 30" d="M552.569,87.578a10.4,10.4,0,0,1,2.1-3.229,10.109,10.109,0,0,1,11.043-2.235,9.242,9.242,0,0,1,3.095,2.121,9.694,9.694,0,0,1,2.025,3.21,10.956,10.956,0,0,1,.726,4.031v1.261H555.7a6.532,6.532,0,0,0,.764,2.2,6.622,6.622,0,0,0,1.433,1.758,6.547,6.547,0,0,0,1.949,1.165,6.365,6.365,0,0,0,2.312.42,6.685,6.685,0,0,0,5.617-2.866l2.789,2.063a10.179,10.179,0,0,1-8.406,4.165,10.761,10.761,0,0,1-4.069-.764,9.911,9.911,0,0,1-3.286-2.14,10.152,10.152,0,0,1-2.2-3.229,10.424,10.424,0,0,1-.038-7.929Zm5.369-1.509a6.511,6.511,0,0,0-2.159,3.611h11.883a6.32,6.32,0,0,0-2.121-3.611,6.006,6.006,0,0,0-7.6,0Z" transform="translate(-505.151 -74.472)" fill="#a8b2b9"/>
    <path id="Path_31" data-name="Path 31" d="M815.84,88.988a5.174,5.174,0,0,0-1.223,3.63V103.7h-3.859V84.212h3.821v2.407a5.431,5.431,0,0,1,1.891-1.872,5.353,5.353,0,0,1,2.77-.688h1.337v3.592h-1.6A4.056,4.056,0,0,0,815.84,88.988Z" transform="translate(-742.211 -76.952)" fill="#a8b2b9"/>
  </g>
</svg>
