<svg id="logo-drive" xmlns="http://www.w3.org/2000/svg" width="29.068" height="25.972" viewBox="0 0 29.068 25.972">
  <path id="Path_17" data-name="Path 17" d="M2.2,57.612,3.48,59.826a3.023,3.023,0,0,0,1.1,1.1L9.157,53H0a3.016,3.016,0,0,0,.4,1.5Z" transform="translate(0 -35.353)" fill="#0066da"/>
  <path id="Path_18" data-name="Path 18" d="M14.534,9.125,9.956,1.2a3.023,3.023,0,0,0-1.1,1.1L.4,16.949a3.017,3.017,0,0,0-.4,1.5H9.157Z" transform="translate(0 -0.8)" fill="#00ac47"/>
  <path id="Path_19" data-name="Path 19" d="M64.377,60.925a3.024,3.024,0,0,0,1.1-1.1l.533-.916L68.556,54.5a3.016,3.016,0,0,0,.4-1.5H59.8l1.949,3.829Z" transform="translate(-39.887 -35.353)" fill="#ea4335"/>
  <path id="Path_20" data-name="Path 20" d="M34.478,8.324,39.057.4a2.927,2.927,0,0,0-1.5-.4H31.4a3.1,3.1,0,0,0-1.5.4Z" transform="translate(-19.944 0)" fill="#00832d"/>
  <path id="Path_21" data-name="Path 21" d="M29.083,53H18.328L13.75,60.925a2.927,2.927,0,0,0,1.5.4H32.163a3.1,3.1,0,0,0,1.5-.4Z" transform="translate(-9.172 -35.353)" fill="#2684fc"/>
  <path id="Path_22" data-name="Path 22" d="M53.556,9.624,49.327,2.3a3.023,3.023,0,0,0-1.1-1.1L43.65,9.125l5.377,9.323h9.14a3.016,3.016,0,0,0-.4-1.5Z" transform="translate(-29.116 -0.8)" fill="#ffba00"/>
</svg>
