<svg xmlns="http://www.w3.org/2000/svg" width="33.907" height="33.907" viewBox="0 0 33.907 33.907">
  <g id="logo-digialoceaon" transform="translate(-88.8 -45.125)">
    <g id="XMLID_691_" transform="translate(88.8 45.125)">
      <g id="Group_6" data-name="Group 6" transform="translate(0 0)">
        <g id="XMLID_44_">
          <g id="XMLID_48_">
            <path id="XMLID_49_" d="M105.756,79.032V72.457a10.435,10.435,0,0,0,9.689-14.226,9.845,9.845,0,0,0-5.863-5.844,10.442,10.442,0,0,0-14.226,9.689H88.8a17.014,17.014,0,0,1,22.358-16.11,16.416,16.416,0,0,1,10.708,10.708A17.014,17.014,0,0,1,105.756,79.032Z" transform="translate(-88.8 -45.125)" fill="#0080ff"/>
          </g>
          <path id="XMLID_47_" d="M149.555,159.955H143V153.4h6.555Z" transform="translate(-132.58 -132.585)" fill="#0080ff" fill-rule="evenodd"/>
          <path id="XMLID_46_" d="M121.918,192.518H116.9V187.5h5.018Z" transform="translate(-111.498 -160.129)" fill="#0080ff" fill-rule="evenodd"/>
          <path id="XMLID_45_" d="M99.21,169.81H95V165.6h4.21Z" transform="translate(-93.808 -142.44)" fill="#0080ff" fill-rule="evenodd"/>
        </g>
      </g>
    </g>
  </g>
</svg>
