<svg id="logo-shopify" xmlns="http://www.w3.org/2000/svg" width="31.513" height="35.708" viewBox="0 0 31.513 35.708">
  <path id="Path_7" data-name="Path 7" d="M27.6,6.876a.346.346,0,0,0-.313-.291c-.13-.011-2.672-.05-2.672-.05S22.489,4.47,22.279,4.26a.868.868,0,0,0-.78-.1l-1.068.331a7.488,7.488,0,0,0-.511-1.256,3.6,3.6,0,0,0-3.2-2.21h0c-.093,0-.185.009-.278.017C16.392,1,16.353.949,16.311.9A2.806,2.806,0,0,0,14.083,0c-1.73.05-3.452,1.3-4.849,3.518A13.929,13.929,0,0,0,7.291,8.561L3.885,9.616c-1,.315-1.034.346-1.165,1.291-.1.714-2.72,21-2.72,21l21.984,3.8,9.528-2.369S27.625,7.056,27.6,6.876ZM19.331,4.833l-1.706.528A9.446,9.446,0,0,0,17.1,2.214C18.412,2.462,19.058,3.947,19.331,4.833Zm-2.856.885L12.8,6.854a8.7,8.7,0,0,1,1.854-3.6A3.7,3.7,0,0,1,15.9,2.349,8.25,8.25,0,0,1,16.475,5.718ZM14.118,1.153a1.764,1.764,0,0,1,1.04.272,5.007,5.007,0,0,0-1.343,1.046,10.078,10.078,0,0,0-2.277,4.774l-3.015.933C9.119,5.4,11.448,1.23,14.118,1.153Z" fill="#95bf47"/>
  <path id="Path_8" data-name="Path 8" d="M42.244,9.392c-.13-.011-2.672-.05-2.672-.05s-2.126-2.065-2.336-2.275a.52.52,0,0,0-.3-.136V38.514l9.527-2.368S42.582,9.864,42.557,9.684A.347.347,0,0,0,42.244,9.392Z" transform="translate(-14.956 -2.807)" fill="#5e8e3e"/>
  <path id="Path_9" data-name="Path 9" d="M20.688,19.042l-1.107,4.14a6.285,6.285,0,0,0-2.7-.47c-2.146.136-2.169,1.489-2.147,1.829.117,1.852,4.988,2.256,5.261,6.593.215,3.412-1.81,5.746-4.727,5.93a7.085,7.085,0,0,1-5.43-1.845l.742-3.156s1.941,1.464,3.494,1.366a1.373,1.373,0,0,0,1.34-1.473c-.153-2.415-4.119-2.273-4.37-6.241-.211-3.339,1.982-6.724,6.822-7.029A5.949,5.949,0,0,1,20.688,19.042Z" transform="translate(-3.984 -7.558)" fill="#fff"/>
</svg>
