<svg xmlns="http://www.w3.org/2000/svg" width="113.019" height="28.597" viewBox="0 0 113.019 28.597">
  <g id="logo-slack" transform="translate(0 0)">
    <path id="Path_23" data-name="Path 23" d="M159.5,24.585l1.412-3.279a9.41,9.41,0,0,0,5.555,1.73c1.48,0,2.413-.569,2.413-1.434-.023-2.413-8.857-.524-8.925-6.58-.023-3.074,2.709-5.442,6.58-5.442a10.126,10.126,0,0,1,6.238,1.867l-1.321,3.347a9.966,9.966,0,0,0-5.146-1.639c-1.207,0-2,.569-2,1.3.023,2.368,8.925,1.07,9.016,6.853,0,3.142-2.664,5.35-6.489,5.35a12.464,12.464,0,0,1-7.331-2.072m54.165-4.463a4.075,4.075,0,1,1,0-4.007l3.893-2.163a8.538,8.538,0,1,0,0,8.333l-3.893-2.163ZM175.278,2.5h4.872V26.338h-4.872Zm44.192,0V26.338h4.872V19.189l5.783,7.149h6.238l-7.354-8.492,6.808-7.923h-5.965l-5.51,6.58V2.5Zm-24.84,17.668a4.493,4.493,0,0,1-3.8,2.026,4.075,4.075,0,0,1,0-8.151,4.5,4.5,0,0,1,3.8,2.095Zm0-10.246v1.935a5.74,5.74,0,0,0-4.85-2.277c-4.28,0-7.65,3.779-7.65,8.515s3.37,8.561,7.65,8.561a5.74,5.74,0,0,0,4.85-2.277v1.935H199.5V9.922Z" transform="translate(-123.345 -2.068)" fill="#a8b2b9"/>
    <path id="Path_24" data-name="Path 24" d="M6.811,69.805A3.005,3.005,0,1,1,3.805,66.8H6.811Zm1.5,0a3.005,3.005,0,1,1,6.011,0v7.513a3.005,3.005,0,1,1-6.011,0Z" transform="translate(-0.777 -51.728)" fill="#a8b2b9"/>
    <path id="Path_25" data-name="Path 25" d="M11.241,6.611a3.005,3.005,0,1,1,3.005-3.005V6.611Zm0,1.525a3.005,3.005,0,0,1,0,6.011H3.705a3.005,3.005,0,0,1,0-6.011Z" transform="translate(-0.7 -0.6)" fill="#a8b2b9"/>
    <path id="Path_26" data-name="Path 26" d="M74.413,11.142a3.005,3.005,0,1,1,3.005,3.005H74.413Zm-1.5,0a3.005,3.005,0,1,1-6.011,0V3.605a3.005,3.005,0,1,1,6.011,0v7.536Z" transform="translate(-51.828 -0.6)" fill="#a8b2b9"/>
    <path id="Path_27" data-name="Path 27" d="M69.905,74.313A3.005,3.005,0,1,1,66.9,77.319V74.313Zm0-1.5a3.005,3.005,0,0,1,0-6.011h7.536a3.005,3.005,0,0,1,0,6.011Z" transform="translate(-51.828 -51.728)" fill="#a8b2b9"/>
  </g>
</svg>
