<svg xmlns="http://www.w3.org/2000/svg" width="17.123" height="17.136" viewBox="0 0 17.123 17.136">
  <path id="logo-instagram" d="M8.4,4.108a4.376,4.376,0,1,0,4.376,4.376A4.362,4.362,0,0,0,8.4,4.108m0,7.23a2.854,2.854,0,1,1,2.854-2.854A2.86,2.86,0,0,1,8.4,11.339M13.991,3.92a1.026,1.026,0,1,1-1.026-1.026A1.029,1.029,0,0,1,13.991,3.92M16.9,4.963a5.092,5.092,0,0,0-1.385-3.589A5.108,5.108,0,0,0,11.922-.011C10.5-.1,6.282-.1,4.863-.011A5.092,5.092,0,0,0,1.274,1.374,5.063,5.063,0,0,0-.111,4.963C-.2,6.382-.2,10.6-.111,12.022a5.092,5.092,0,0,0,1.385,3.589A5.138,5.138,0,0,0,4.863,17c1.419.085,5.641.085,7.059,0a5.092,5.092,0,0,0,3.589-1.385A5.108,5.108,0,0,0,16.9,12.022c.068-1.419.068-5.658,0-7.059m-1.829,8.563a2.864,2.864,0,0,1-1.624,1.624c-1.128.444-3.795.342-5.042.342s-3.914.1-5.042-.342a2.864,2.864,0,0,1-1.624-1.624c-.444-1.128-.342-3.795-.342-5.042s-.1-3.914.342-5.042A2.864,2.864,0,0,1,3.359,1.818c1.128-.444,3.795-.342,5.042-.342s3.914-.1,5.042.342a2.864,2.864,0,0,1,1.624,1.624c.444,1.128.342,3.795.342,5.042s.1,3.914-.342,5.042" transform="translate(0.175 0.075)" fill="#5c7589"/>
</svg>
