<svg xmlns="http://www.w3.org/2000/svg" width="32.276" height="32.25" viewBox="0 0 32.276 32.25">
  <g id="logo-slack" transform="translate(-0.7 -0.6)">
    <path id="Path_12" data-name="Path 12" d="M7.579,70.189A3.389,3.389,0,1,1,4.189,66.8H7.579Zm1.695,0a3.389,3.389,0,0,1,6.779,0v8.473a3.389,3.389,0,0,1-6.779,0Z" transform="translate(-0.074 -49.202)" fill="#e01e5a"/>
    <path id="Path_13" data-name="Path 13" d="M12.589,7.379a3.389,3.389,0,1,1,3.389-3.389V7.379Zm0,1.72a3.389,3.389,0,1,1,0,6.779h-8.5a3.389,3.389,0,1,1,0-6.779Z" fill="#36c5f0"/>
    <path id="Path_14" data-name="Path 14" d="M75.373,12.489a3.389,3.389,0,1,1,3.389,3.389H75.373Zm-1.695,0a3.389,3.389,0,0,1-6.779,0v-8.5a3.389,3.389,0,1,1,6.779,0v8.5Z" transform="translate(-49.202)" fill="#2eb67d"/>
    <path id="Path_15" data-name="Path 15" d="M70.289,75.273A3.389,3.389,0,1,1,66.9,78.663V75.273Zm0-1.695a3.389,3.389,0,0,1,0-6.779h8.5a3.389,3.389,0,0,1,0,6.779Z" transform="translate(-49.202 -49.202)" fill="#ecb22e"/>
  </g>
</svg>
